<?xml version="1.0" encoding="utf-8"?>
<!-- Generator: Adobe Illustrator 19.2.0, SVG Export Plug-In . SVG Version: 6.00 Build 0)  -->
<svg version="1.1" id="Layer_1" xmlns="http://www.w3.org/2000/svg" xmlns:xlink="http://www.w3.org/1999/xlink" x="0px" y="0px"
	 viewBox="0 0 24 24" style="enable-background:new 0 0 24 24;" xml:space="preserve">
<style type="text/css">
	.st0{fill:none;}
	.st1{fill:#FFFFFF;}
</style>
<path class="st0" d="M0,0h24v24H0V0z"/>
<path class="st1" d="M12,22c5,0,9-4,9-9C16,13,12,17,12,22z M5.6,10.2c0,1.4,1.1,2.5,2.5,2.5c0.5,0,1-0.2,1.4-0.4l0,0.2
	c0,1.4,1.1,2.5,2.5,2.5s2.5-1.1,2.5-2.5l0-0.2c0.4,0.3,0.9,0.4,1.4,0.4c1.4,0,2.5-1.1,2.5-2.5c0-1-0.6-1.9-1.4-2.2
	c0.8-0.4,1.4-1.2,1.4-2.2c0-1.4-1.1-2.5-2.5-2.5c-0.5,0-1,0.2-1.4,0.4l0-0.2C14.5,2.1,13.4,1,12,1S9.5,2.1,9.5,3.5l0,0.2
	C9.1,3.4,8.6,3.2,8.1,3.2c-1.4,0-2.5,1.1-2.5,2.5c0,1,0.6,1.8,1.4,2.2C6.2,8.4,5.6,9.2,5.6,10.2z M12,5.5c1.4,0,2.5,1.1,2.5,2.5
	s-1.1,2.5-2.5,2.5S9.5,9.4,9.5,8S10.6,5.5,12,5.5z M3,13c0,5,4,9,9,9C12,17,8,13,3,13z"/>
</svg>
