<?xml version="1.0" encoding="utf-8"?>
<!-- Generator: Adobe Illustrator 19.2.0, SVG Export Plug-In . SVG Version: 6.00 Build 0)  -->
<svg version="1.1" id="Layer_1" xmlns="http://www.w3.org/2000/svg" xmlns:xlink="http://www.w3.org/1999/xlink" x="0px" y="0px"
	 viewBox="0 0 24 24" style="enable-background:new 0 0 24 24;" xml:space="preserve">
<style type="text/css">
	.st0{fill:none;}
	.st1{fill:#FFFFFF;}
</style>
<path class="st0" d="M0,0h24v24H0V0z"/>
<path class="st1" d="M7,11H1v2h6V11z M9.2,7.8L7.1,5.6L5.6,7.1l2.1,2.1L9.2,7.8z M13,1h-2v6h2V1z M18.4,7.1L17,5.6l-2.1,2.1l1.4,1.4
	L18.4,7.1z M17,11v2h6v-2H17z M12,9c-1.7,0-3,1.3-3,3s1.3,3,3,3s3-1.3,3-3S13.7,9,12,9z M14.8,16.2l2.1,2.1l1.4-1.4l-2.1-2.1
	C16.2,14.8,14.8,16.2,14.8,16.2z M5.6,16.9l1.4,1.4l2.1-2.1l-1.4-1.4C7.8,14.8,5.6,16.9,5.6,16.9z M11,23h2v-6h-2V23z"/>
</svg>
