<svg width="126" height="128" viewBox="0 0 126 128" fill="none" xmlns="http://www.w3.org/2000/svg">
<path d="M46.6201 53.0134L52.1851 58.6667L57.7501 53.0134L46.6201 41.7067L35.4901 53.0134L41.0551 58.6667L46.6201 53.0134ZM63.0001 93.3334C75.2326 93.3334 85.6276 85.5468 89.8276 74.6667H36.1726C40.3726 85.5468 50.7676 93.3334 63.0001 93.3334ZM68.2501 53.0134L73.8151 58.6667L79.3801 53.0134L84.9451 58.6667L90.5101 53.0134L79.3801 41.7067L68.2501 53.0134ZM62.9476 10.6667C33.9676 10.6667 10.5001 34.5067 10.5001 64.0001C10.5001 93.4934 33.9676 117.333 62.9476 117.333C91.9276 117.333 115.5 93.4934 115.5 64.0001C115.5 34.5067 91.9801 10.6667 62.9476 10.6667ZM63.0001 106.667C39.7951 106.667 21.0001 87.5734 21.0001 64.0001C21.0001 40.4267 39.7951 21.3334 63.0001 21.3334C86.2051 21.3334 105 40.4267 105 64.0001C105 87.5734 86.2051 106.667 63.0001 106.667Z" fill="#D1D1D1"/>
<circle cx="105.5" cy="102.5" r="20.5" fill="#717171"/>
<line x1="119" y1="102.5" x2="91" y2="102.5" stroke="white"/>
<line x1="119" y1="102.5" x2="91" y2="102.5" stroke="white"/>
<line x1="119" y1="102.5" x2="91" y2="102.5" stroke="white"/>
<line x1="119" y1="102.5" x2="91" y2="102.5" stroke="white"/>
<line x1="105.5" y1="88" x2="105.5" y2="116" stroke="white"/>
<line x1="105.5" y1="88" x2="105.5" y2="116" stroke="white"/>
<line x1="105.5" y1="88" x2="105.5" y2="116" stroke="white"/>
<line x1="105.5" y1="88" x2="105.5" y2="116" stroke="white"/>
</svg>
